{"title":"Fall Out Boy Ft. Foxes - Just One Yesterday [Music Video] 1080p ","uid":10098849,"size":144702939,"categoryP":"video","categoryS":"music_videos","magnet":"?xt=urn:btih:5de8a166873b5f2cd1a958bb442782103741560b&amp;dn=Fall+Out+Boy+Ft.+Foxes+-+Just+One+Yesterday+%5BMusic+Video%5D+1080p+&amp;tr=udp%3A%2F%2Ftracker.openbittorrent.com%3A80&amp;tr=udp%3A%2F%2Fopen.demonii.com%3A1337&amp;tr=udp%3A%2F%2Ftracker.coppersurfer.tk%3A6969&amp;tr=udp%3A%2F%2Fexodus.desync.com%3A6969","seeders":3,"leechers":2,"uploader":"Sbyky","files":1,"time":1399351357,"description":"\n\nGeneral\nComplete name                            : Fall Out Boy Ft. Foxes - Just One Yesterday [Music Video] 1080p [Sbyky].mp4\nFormat                                   : MPEG-4\nFormat profile                           : Base Media\nCodec ID                                 : isom\nFile size                                : 138 MiB\nDuration                                 : 4mn 31s\nOverall bit rate mode                    : Variable\nOverall bit rate                         : 4 272 Kbps\nEncoded date                             : UTC 2013-12-03 03:57:00\nTagged date                              : UTC 2013-12-03 03:57:00\n\nVideo\nID                                       : 1\nFormat                                   : AVC\nFormat/Info                              : Advanced Video Codec\nFormat profile                           : &lt;a class=&quot;__cf_email__&quot; href=&quot;/cdn-cgi/l/email-protection&quot; data-cfemail=&quot;dd95b4bab59d91e9f3ed&quot;&gt;[email&amp;#160;protected]&lt;/a&gt;&lt;script cf-hash='f9e31' type=&quot;text/javascript&quot;&gt;\n/* &lt;![CDATA[ */!function(){try{var t=&quot;currentScript&quot;in document?document.currentScript:function(){for(var t=document.getElementsByTagName(&quot;script&quot;),e=t.length;e--;)if(t[e].getAttribute(&quot;cf-hash&quot;))return t[e]}();if(t&amp;&amp;t.previousSibling){var e,r,n,i,c=t.previousSibling,a=c.getAttribute(&quot;data-cfemail&quot;);if(a){for(e=&quot;&quot;,r=parseInt(a.substr(0,2),16),n=2;a.length-n;n+=2)i=parseInt(a.substr(n,2),16)^r,e+=String.fromCharCode(i);e=document.createTextNode(e),c.parentNode.replaceChild(e,c)}}}catch(u){}}();/* ]]&gt; */&lt;/script&gt;\nFormat settings, CABAC                   : Yes\nFormat settings, ReFrames                : 3 frames\nCodec ID                                 : avc1\nCodec ID/Info                            : Advanced Video Coding\nDuration                                 : 4mn 30s\nDuration_LastFrame                       : -41ms\nBit rate                                 : 4 144 Kbps\nWidth                                    : 1 920 pixels\nHeight                                   : 1 080 pixels\nDisplay aspect ratio                     : 16:9\nFrame rate mode                          : Constant\nFrame rate                               : 23.976 fps\nColor space                              : YUV\nChroma subsampling                       : 4:2:0\nBit depth                                : 8 bits\nScan type                                : Progressive\nBits/(Pixel*Frame)                       : 0.083\nStream size                              : 134 MiB (97%)\nEncoded date                             : UTC 2013-12-03 03:57:00\nTagged date                              : UTC 2013-12-03 03:57:00\n\nAudio\nID                                       : 2\nFormat                                   : AAC\nFormat/Info                              : Advanced Audio Codec\nFormat profile                           : LC\nCodec ID                                 : 40\nDuration                                 : 4mn 31s\nBit rate mode                            : Variable\nBit rate                                 : 126 Kbps\nChannel(s)                               : 2 channels\nChannel positions                        : Front: L R\nSampling rate                            : 44.1 KHz\nCompression mode                         : Lossy\nStream size                              : 4.06 MiB (3%)\nEncoded date                             : UTC 2013-12-03 03:53:16\nTagged date                              : UTC 2013-12-03 03:53:16\n\nShared By Sbyky\n","torrent":{"xt":"urn:btih:5de8a166873b5f2cd1a958bb442782103741560b","amp;dn":"Fall+Out+Boy+Ft.+Foxes+-+Just+One+Yesterday+%5BMusic+Video%5D+1080p+","amp;tr":["udp%3A%2F%2Ftracker.openbittorrent.com%3A80","udp%3A%2F%2Fopen.demonii.com%3A1337","udp%3A%2F%2Ftracker.coppersurfer.tk%3A6969","udp%3A%2F%2Fexodus.desync.com%3A6969"],"infoHash":"5de8a166873b5f2cd1a958bb442782103741560b","infoHashBuffer":{"type":"Buffer","data":[93,232,161,102,135,59,95,44,209,169,88,187,68,39,130,16,55,65,86,11]},"announce":[],"urlList":[]}}